<svg height="7742" width="720" xmlns="http://www.w3.org/2000/svg">
<rect height="7742" fill="#555" width="720"></rect>
<text fill="#7f7" font-family="Courier New" font-size="12" xml:space="preserve">
<tspan x="10" y="26">└─┬ generator-gulp-angular@1.1.1 </tspan>
<tspan x="10" y="42">  ├─┬ chalk@1.1.3 </tspan>
<tspan x="10" y="58">  │ ├── ansi-styles@2.2.1 </tspan>
<tspan x="10" y="74">  │ ├── escape-string-regexp@1.0.5 </tspan>
<tspan x="10" y="90">  │ ├─┬ has-ansi@2.0.0 </tspan>
<tspan x="10" y="106">  │ │ └── ansi-regex@2.1.1 </tspan>
<tspan x="10" y="122">  │ ├── strip-ansi@3.0.1 </tspan>
<tspan x="10" y="138">  │ └── supports-color@2.0.0 </tspan>
<tspan x="10" y="154">  ├─┬ insight@0.7.0 </tspan>
<tspan x="10" y="170">  │ ├── async@1.5.2 </tspan>
<tspan x="10" y="186">  │ ├─┬ configstore@1.4.0 </tspan>
<tspan x="10" y="202">  │ │ ├── graceful-fs@4.1.11 </tspan>
<tspan x="10" y="218">  │ │ ├── os-tmpdir@1.0.2 </tspan>
<tspan x="10" y="234">  │ │ ├── osenv@0.1.4 </tspan>
<tspan x="10" y="250">  │ │ ├── uuid@2.0.3 </tspan>
<tspan x="10" y="266">  │ │ └─┬ write-file-atomic@1.3.1 </tspan>
<tspan x="10" y="282">  │ │   ├── imurmurhash@0.1.4 </tspan>
<tspan x="10" y="298">  │ │   └── slide@1.1.6 </tspan>
<tspan x="10" y="314">  │ ├─┬ inquirer@0.10.1 </tspan>
<tspan x="10" y="330">  │ │ ├── ansi-escapes@1.4.0 </tspan>
<tspan x="10" y="346">  │ │ ├─┬ cli-cursor@1.0.2 </tspan>
<tspan x="10" y="362">  │ │ │ └─┬ restore-cursor@1.0.1 </tspan>
<tspan x="10" y="378">  │ │ │   └── exit-hook@1.1.1 </tspan>
<tspan x="10" y="394">  │ │ ├── cli-width@1.1.1 </tspan>
<tspan x="10" y="410">  │ │ ├── figures@1.7.0 </tspan>
<tspan x="10" y="426">  │ │ ├─┬ readline2@1.0.1 </tspan>
<tspan x="10" y="442">  │ │ │ └── mute-stream@0.0.5 </tspan>
<tspan x="10" y="458">  │ │ ├── rx-lite@3.1.2 </tspan>
<tspan x="10" y="474">  │ │ └── through@2.3.8 </tspan>
<tspan x="10" y="490">  │ ├─┬ lodash.debounce@3.1.1 </tspan>
<tspan x="10" y="506">  │ │ └── lodash._getnative@3.9.1 </tspan>
<tspan x="10" y="522">  │ ├── object-assign@4.1.1 </tspan>
<tspan x="10" y="538">  │ ├─┬ os-name@1.0.3 </tspan>
<tspan x="10" y="554">  │ │ ├─┬ osx-release@1.1.0 </tspan>
<tspan x="10" y="570">  │ │ │ └── minimist@1.2.0 </tspan>
<tspan x="10" y="586">  │ │ └─┬ win-release@1.1.1 </tspan>
<tspan x="10" y="602">  │ │   └── semver@5.3.0 </tspan>
<tspan x="10" y="618">  │ ├─┬ request@2.81.0 </tspan>
<tspan x="10" y="634">  │ │ ├── aws-sign2@0.6.0 </tspan>
<tspan x="10" y="650">  │ │ ├── aws4@1.6.0 </tspan>
<tspan x="10" y="666">  │ │ ├── caseless@0.12.0 </tspan>
<tspan x="10" y="682">  │ │ ├─┬ combined-stream@1.0.5 </tspan>
<tspan x="10" y="698">  │ │ │ └── delayed-stream@1.0.0 </tspan>
<tspan x="10" y="714">  │ │ ├── extend@3.0.0 </tspan>
<tspan x="10" y="730">  │ │ ├── forever-agent@0.6.1 </tspan>
<tspan x="10" y="746">  │ │ ├─┬ form-data@2.1.2 </tspan>
<tspan x="10" y="762">  │ │ │ └── asynckit@0.4.0 </tspan>
<tspan x="10" y="778">  │ │ ├─┬ har-validator@4.2.1 </tspan>
<tspan x="10" y="794">  │ │ │ ├─┬ ajv@4.11.5 </tspan>
<tspan x="10" y="810">  │ │ │ │ ├── co@4.6.0 </tspan>
<tspan x="10" y="826">  │ │ │ │ └─┬ json-stable-stringify@1.0.1 </tspan>
<tspan x="10" y="842">  │ │ │ │   └── jsonify@0.0.0 </tspan>
<tspan x="10" y="858">  │ │ │ └── har-schema@1.0.5 </tspan>
<tspan x="10" y="874">  │ │ ├─┬ hawk@3.1.3 </tspan>
<tspan x="10" y="890">  │ │ │ ├── boom@2.10.1 </tspan>
<tspan x="10" y="906">  │ │ │ ├── cryptiles@2.0.5 </tspan>
<tspan x="10" y="922">  │ │ │ ├── hoek@2.16.3 </tspan>
<tspan x="10" y="938">  │ │ │ └── sntp@1.0.9 </tspan>
<tspan x="10" y="954">  │ │ ├─┬ http-signature@1.1.1 </tspan>
<tspan x="10" y="970">  │ │ │ ├── assert-plus@0.2.0 </tspan>
<tspan x="10" y="986">  │ │ │ ├─┬ jsprim@1.4.0 </tspan>
<tspan x="10" y="1002">  │ │ │ │ ├── assert-plus@1.0.0 </tspan>
<tspan x="10" y="1018">  │ │ │ │ ├── extsprintf@1.0.2 </tspan>
<tspan x="10" y="1034">  │ │ │ │ ├── json-schema@0.2.3 </tspan>
<tspan x="10" y="1050">  │ │ │ │ └── verror@1.3.6 </tspan>
<tspan x="10" y="1066">  │ │ │ └─┬ sshpk@1.11.0 </tspan>
<tspan x="10" y="1082">  │ │ │   ├── asn1@0.2.3 </tspan>
<tspan x="10" y="1098">  │ │ │   ├── assert-plus@1.0.0 </tspan>
<tspan x="10" y="1114">  │ │ │   ├── bcrypt-pbkdf@1.0.1 </tspan>
<tspan x="10" y="1130">  │ │ │   ├─┬ dashdash@1.14.1 </tspan>
<tspan x="10" y="1146">  │ │ │   │ └── assert-plus@1.0.0 </tspan>
<tspan x="10" y="1162">  │ │ │   ├── ecc-jsbn@0.1.1 </tspan>
<tspan x="10" y="1178">  │ │ │   ├─┬ getpass@0.1.6 </tspan>
<tspan x="10" y="1194">  │ │ │   │ └── assert-plus@1.0.0 </tspan>
<tspan x="10" y="1210">  │ │ │   ├── jodid25519@1.0.2 </tspan>
<tspan x="10" y="1226">  │ │ │   ├── jsbn@0.1.1 </tspan>
<tspan x="10" y="1242">  │ │ │   └── tweetnacl@0.14.5 </tspan>
<tspan x="10" y="1258">  │ │ ├── is-typedarray@1.0.0 </tspan>
<tspan x="10" y="1274">  │ │ ├── isstream@0.1.2 </tspan>
<tspan x="10" y="1290">  │ │ ├── json-stringify-safe@5.0.1 </tspan>
<tspan x="10" y="1306">  │ │ ├─┬ mime-types@2.1.15 </tspan>
<tspan x="10" y="1322">  │ │ │ └── mime-db@1.27.0 </tspan>
<tspan x="10" y="1338">  │ │ ├── oauth-sign@0.8.2 </tspan>
<tspan x="10" y="1354">  │ │ ├── performance-now@0.2.0 </tspan>
<tspan x="10" y="1370">  │ │ ├── qs@6.4.0 </tspan>
<tspan x="10" y="1386">  │ │ ├── safe-buffer@5.0.1 </tspan>
<tspan x="10" y="1402">  │ │ ├── stringstream@0.0.5 </tspan>
<tspan x="10" y="1418">  │ │ ├── tunnel-agent@0.6.0 </tspan>
<tspan x="10" y="1434">  │ │ └── uuid@3.0.1 </tspan>
<tspan x="10" y="1450">  │ └─┬ tough-cookie@2.3.2 </tspan>
<tspan x="10" y="1466">  │   └── punycode@1.4.1 </tspan>
<tspan x="10" y="1482">  ├── lodash@3.10.1 </tspan>
<tspan x="10" y="1498">  ├── slash@1.0.0 </tspan>
<tspan x="10" y="1514">  ├── underscore.string@3.2.3 </tspan>
<tspan x="10" y="1530">  ├─┬ yeoman-generator@0.20.3 </tspan>
<tspan x="10" y="1546">  │ ├─┬ class-extend@0.1.2 </tspan>
<tspan x="10" y="1562">  │ │ └── object-assign@2.1.1 </tspan>
<tspan x="10" y="1578">  │ ├─┬ cli-table@0.3.1 </tspan>
<tspan x="10" y="1594">  │ │ └── colors@1.0.3 </tspan>
<tspan x="10" y="1610">  │ ├─┬ cross-spawn@2.2.3 </tspan>
<tspan x="10" y="1626">  │ │ ├─┬ cross-spawn-async@2.2.5 </tspan>
<tspan x="10" y="1642">  │ │ │ ├─┬ lru-cache@4.0.2 </tspan>
<tspan x="10" y="1658">  │ │ │ │ ├── pseudomap@1.0.2 </tspan>
<tspan x="10" y="1674">  │ │ │ │ └── yallist@2.1.2 </tspan>
<tspan x="10" y="1690">  │ │ │ └─┬ which@1.2.14 </tspan>
<tspan x="10" y="1706">  │ │ │   └── isexe@2.0.0 </tspan>
<tspan x="10" y="1722">  │ │ └─┬ spawn-sync@1.0.15 </tspan>
<tspan x="10" y="1738">  │ │   └── os-shim@0.1.3 </tspan>
<tspan x="10" y="1754">  │ ├─┬ dargs@4.1.0 </tspan>
<tspan x="10" y="1770">  │ │ └── number-is-nan@1.0.1 </tspan>
<tspan x="10" y="1786">  │ ├─┬ dateformat@1.0.12 </tspan>
<tspan x="10" y="1802">  │ │ ├── get-stdin@4.0.1 </tspan>
<tspan x="10" y="1818">  │ │ └─┬ meow@3.7.0 </tspan>
<tspan x="10" y="1834">  │ │   ├─┬ camelcase-keys@2.1.0 </tspan>
<tspan x="10" y="1850">  │ │   │ └── camelcase@2.1.1 </tspan>
<tspan x="10" y="1866">  │ │   ├── decamelize@1.2.0 </tspan>
<tspan x="10" y="1882">  │ │   ├─┬ loud-rejection@1.6.0 </tspan>
<tspan x="10" y="1898">  │ │   │ ├─┬ currently-unhandled@0.4.1 </tspan>
<tspan x="10" y="1914">  │ │   │ │ └── array-find-index@1.0.2 </tspan>
<tspan x="10" y="1930">  │ │   │ └── signal-exit@3.0.2 </tspan>
<tspan x="10" y="1946">  │ │   ├── map-obj@1.0.1 </tspan>
<tspan x="10" y="1962">  │ │   ├── minimist@1.2.0 </tspan>
<tspan x="10" y="1978">  │ │   ├─┬ normalize-package-data@2.3.6 </tspan>
<tspan x="10" y="1994">  │ │   │ ├── hosted-git-info@2.4.1 </tspan>
<tspan x="10" y="2010">  │ │   │ ├─┬ is-builtin-module@1.0.0 </tspan>
<tspan x="10" y="2026">  │ │   │ │ └── builtin-modules@1.1.1 </tspan>
<tspan x="10" y="2042">  │ │   │ └─┬ validate-npm-package-license@3.0.1 </tspan>
<tspan x="10" y="2058">  │ │   │   ├─┬ spdx-correct@1.0.2 </tspan>
<tspan x="10" y="2074">  │ │   │   │ └── spdx-license-ids@1.2.2 </tspan>
<tspan x="10" y="2090">  │ │   │   └── spdx-expression-parse@1.0.4 </tspan>
<tspan x="10" y="2106">  │ │   ├─┬ read-pkg-up@1.0.1 </tspan>
<tspan x="10" y="2122">  │ │   │ ├─┬ find-up@1.1.2 </tspan>
<tspan x="10" y="2138">  │ │   │ │ └── path-exists@2.1.0 </tspan>
<tspan x="10" y="2154">  │ │   │ └─┬ read-pkg@1.1.0 </tspan>
<tspan x="10" y="2170">  │ │   │   ├── load-json-file@1.1.0 </tspan>
<tspan x="10" y="2186">  │ │   │   └── path-type@1.1.0 </tspan>
<tspan x="10" y="2202">  │ │   ├─┬ redent@1.0.0 </tspan>
<tspan x="10" y="2218">  │ │   │ ├─┬ indent-string@2.1.0 </tspan>
<tspan x="10" y="2234">  │ │   │ │ └── repeating@2.0.1 </tspan>
<tspan x="10" y="2250">  │ │   │ └── strip-indent@1.0.1 </tspan>
<tspan x="10" y="2266">  │ │   └── trim-newlines@1.0.0 </tspan>
<tspan x="10" y="2282">  │ ├─┬ debug@2.6.3 </tspan>
<tspan x="10" y="2298">  │ │ └── ms@0.7.2 </tspan>
<tspan x="10" y="2314">  │ ├── detect-conflict@1.0.1 </tspan>
<tspan x="10" y="2330">  │ ├── diff@2.2.3 </tspan>
<tspan x="10" y="2346">  │ ├─┬ download@4.4.3 </tspan>
<tspan x="10" y="2362">  │ │ ├─┬ caw@1.2.0 </tspan>
<tspan x="10" y="2378">  │ │ │ ├─┬ get-proxy@1.1.0 </tspan>
<tspan x="10" y="2394">  │ │ │ │ └─┬ rc@1.2.1 </tspan>
<tspan x="10" y="2410">  │ │ │ │   ├── ini@1.3.4 </tspan>
<tspan x="10" y="2426">  │ │ │ │   ├── minimist@1.2.0 </tspan>
<tspan x="10" y="2442">  │ │ │ │   └── strip-json-comments@2.0.1 </tspan>
<tspan x="10" y="2458">  │ │ │ ├── is-obj@1.0.1 </tspan>
<tspan x="10" y="2474">  │ │ │ ├── object-assign@3.0.0 </tspan>
<tspan x="10" y="2490">  │ │ │ └── tunnel-agent@0.4.3 </tspan>
<tspan x="10" y="2506">  │ │ ├─┬ concat-stream@1.6.0 </tspan>
<tspan x="10" y="2522">  │ │ │ └── typedarray@0.0.6 </tspan>
<tspan x="10" y="2538">  │ │ ├─┬ each-async@1.1.1 </tspan>
<tspan x="10" y="2554">  │ │ │ ├── onetime@1.1.0 </tspan>
<tspan x="10" y="2570">  │ │ │ └── set-immediate-shim@1.0.1 </tspan>
<tspan x="10" y="2586">  │ │ ├─┬ filenamify@1.2.1 </tspan>
<tspan x="10" y="2602">  │ │ │ ├── filename-reserved-regex@1.0.0 </tspan>
<tspan x="10" y="2618">  │ │ │ ├── strip-outer@1.0.0 </tspan>
<tspan x="10" y="2634">  │ │ │ └── trim-repeated@1.0.0 </tspan>
<tspan x="10" y="2650">  │ │ ├─┬ got@5.7.1 </tspan>
<tspan x="10" y="2666">  │ │ │ ├─┬ create-error-class@3.0.2 </tspan>
<tspan x="10" y="2682">  │ │ │ │ └── capture-stack-trace@1.0.0 </tspan>
<tspan x="10" y="2698">  │ │ │ ├── duplexer2@0.1.4 </tspan>
<tspan x="10" y="2714">  │ │ │ ├── is-redirect@1.0.0 </tspan>
<tspan x="10" y="2730">  │ │ │ ├── is-retry-allowed@1.1.0 </tspan>
<tspan x="10" y="2746">  │ │ │ ├── is-stream@1.1.0 </tspan>
<tspan x="10" y="2762">  │ │ │ ├── lowercase-keys@1.0.0 </tspan>
<tspan x="10" y="2778">  │ │ │ ├── node-status-codes@1.0.0 </tspan>
<tspan x="10" y="2794">  │ │ │ ├─┬ parse-json@2.2.0 </tspan>
<tspan x="10" y="2810">  │ │ │ │ └─┬ error-ex@1.3.1 </tspan>
<tspan x="10" y="2826">  │ │ │ │   └── is-arrayish@0.2.1 </tspan>
<tspan x="10" y="2842">  │ │ │ ├─┬ pinkie-promise@2.0.1 </tspan>
<tspan x="10" y="2858">  │ │ │ │ └── pinkie@2.0.4 </tspan>
<tspan x="10" y="2874">  │ │ │ ├── timed-out@3.1.3 </tspan>
<tspan x="10" y="2890">  │ │ │ ├── unzip-response@1.0.2 </tspan>
<tspan x="10" y="2906">  │ │ │ └─┬ url-parse-lax@1.0.0 </tspan>
<tspan x="10" y="2922">  │ │ │   └── prepend-http@1.0.4 </tspan>
<tspan x="10" y="2938">  │ │ ├─┬ gulp-decompress@1.2.0 </tspan>
<tspan x="10" y="2954">  │ │ │ ├─┬ archive-type@3.2.0 </tspan>
<tspan x="10" y="2970">  │ │ │ │ └── file-type@3.9.0 </tspan>
<tspan x="10" y="2986">  │ │ │ ├─┬ decompress@3.0.0 </tspan>
<tspan x="10" y="3002">  │ │ │ │ ├── buffer-to-vinyl@1.1.0 </tspan>
<tspan x="10" y="3018">  │ │ │ │ ├─┬ decompress-tar@3.1.0 </tspan>
<tspan x="10" y="3034">  │ │ │ │ │ ├── is-tar@1.0.0 </tspan>
<tspan x="10" y="3050">  │ │ │ │ │ ├── object-assign@2.1.1 </tspan>
<tspan x="10" y="3066">  │ │ │ │ │ ├─┬ strip-dirs@1.1.1 </tspan>
<tspan x="10" y="3082">  │ │ │ │ │ │ ├─┬ is-absolute@0.1.7 </tspan>
<tspan x="10" y="3098">  │ │ │ │ │ │ │ └── is-relative@0.1.3 </tspan>
<tspan x="10" y="3114">  │ │ │ │ │ │ ├── is-natural-number@2.1.1 </tspan>
<tspan x="10" y="3130">  │ │ │ │ │ │ ├── minimist@1.2.0 </tspan>
<tspan x="10" y="3146">  │ │ │ │ │ │ └── sum-up@1.0.3 </tspan>
<tspan x="10" y="3162">  │ │ │ │ │ ├─┬ tar-stream@1.5.2 </tspan>
<tspan x="10" y="3178">  │ │ │ │ │ │ ├── bl@1.2.0 </tspan>
<tspan x="10" y="3194">  │ │ │ │ │ │ └── end-of-stream@1.4.0 </tspan>
<tspan x="10" y="3210">  │ │ │ │ │ ├─┬ through2@0.6.5 </tspan>
<tspan x="10" y="3226">  │ │ │ │ │ │ └─┬ readable-stream@1.0.34 </tspan>
<tspan x="10" y="3242">  │ │ │ │ │ │   └── isarray@0.0.1 </tspan>
<tspan x="10" y="3258">  │ │ │ │ │ └─┬ vinyl@0.4.6 </tspan>
<tspan x="10" y="3274">  │ │ │ │ │   └── clone@0.2.0 </tspan>
<tspan x="10" y="3290">  │ │ │ │ ├─┬ decompress-tarbz2@3.1.0 </tspan>
<tspan x="10" y="3306">  │ │ │ │ │ ├── is-bzip2@1.0.0 </tspan>
<tspan x="10" y="3322">  │ │ │ │ │ ├── object-assign@2.1.1 </tspan>
<tspan x="10" y="3338">  │ │ │ │ │ ├─┬ seek-bzip@1.0.5 </tspan>
<tspan x="10" y="3354">  │ │ │ │ │ │ └─┬ commander@2.8.1 </tspan>
<tspan x="10" y="3370">  │ │ │ │ │ │   └── graceful-readlink@1.0.1 </tspan>
<tspan x="10" y="3386">  │ │ │ │ │ ├─┬ through2@0.6.5 </tspan>
<tspan x="10" y="3402">  │ │ │ │ │ │ └─┬ readable-stream@1.0.34 </tspan>
<tspan x="10" y="3418">  │ │ │ │ │ │   └── isarray@0.0.1 </tspan>
<tspan x="10" y="3434">  │ │ │ │ │ └─┬ vinyl@0.4.6 </tspan>
<tspan x="10" y="3450">  │ │ │ │ │   └── clone@0.2.0 </tspan>
<tspan x="10" y="3466">  │ │ │ │ ├─┬ decompress-targz@3.1.0 </tspan>
<tspan x="10" y="3482">  │ │ │ │ │ ├── is-gzip@1.0.0 </tspan>
<tspan x="10" y="3498">  │ │ │ │ │ ├── object-assign@2.1.1 </tspan>
<tspan x="10" y="3514">  │ │ │ │ │ ├─┬ through2@0.6.5 </tspan>
<tspan x="10" y="3530">  │ │ │ │ │ │ └─┬ readable-stream@1.0.34 </tspan>
<tspan x="10" y="3546">  │ │ │ │ │ │   └── isarray@0.0.1 </tspan>
<tspan x="10" y="3562">  │ │ │ │ │ └─┬ vinyl@0.4.6 </tspan>
<tspan x="10" y="3578">  │ │ │ │ │   └── clone@0.2.0 </tspan>
<tspan x="10" y="3594">  │ │ │ │ ├─┬ decompress-unzip@3.4.0 </tspan>
<tspan x="10" y="3610">  │ │ │ │ │ ├── is-zip@1.0.0 </tspan>
<tspan x="10" y="3626">  │ │ │ │ │ ├── stat-mode@0.2.2 </tspan>
<tspan x="10" y="3642">  │ │ │ │ │ └─┬ yauzl@2.7.0 </tspan>
<tspan x="10" y="3658">  │ │ │ │ │   ├── buffer-crc32@0.2.13 </tspan>
<tspan x="10" y="3674">  │ │ │ │ │   └─┬ fd-slicer@1.0.1 </tspan>
<tspan x="10" y="3690">  │ │ │ │ │     └── pend@1.2.0 </tspan>
<tspan x="10" y="3706">  │ │ │ │ └── vinyl-assign@1.2.1 </tspan>
<tspan x="10" y="3722">  │ │ │ └─┬ gulp-util@3.0.8 </tspan>
<tspan x="10" y="3738">  │ │ │   ├── array-uniq@1.0.3 </tspan>
<tspan x="10" y="3754">  │ │ │   ├── beeper@1.1.1 </tspan>
<tspan x="10" y="3770">  │ │ │   ├── dateformat@2.0.0 </tspan>
<tspan x="10" y="3786">  │ │ │   ├─┬ fancy-log@1.3.0 </tspan>
<tspan x="10" y="3802">  │ │ │   │ └── time-stamp@1.0.1 </tspan>
<tspan x="10" y="3818">  │ │ │   ├─┬ gulplog@1.0.0 </tspan>
<tspan x="10" y="3834">  │ │ │   │ └── glogg@1.0.0 </tspan>
<tspan x="10" y="3850">  │ │ │   ├─┬ has-gulplog@0.1.0 </tspan>
<tspan x="10" y="3866">  │ │ │   │ └── sparkles@1.0.0 </tspan>
<tspan x="10" y="3882">  │ │ │   ├── lodash._reescape@3.0.0 </tspan>
<tspan x="10" y="3898">  │ │ │   ├── lodash._reevaluate@3.0.0 </tspan>
<tspan x="10" y="3914">  │ │ │   ├── lodash._reinterpolate@3.0.0 </tspan>
<tspan x="10" y="3930">  │ │ │   ├─┬ lodash.template@3.6.2 </tspan>
<tspan x="10" y="3946">  │ │ │   │ ├── lodash._basecopy@3.0.1 </tspan>
<tspan x="10" y="3962">  │ │ │   │ ├── lodash._basetostring@3.0.1 </tspan>
<tspan x="10" y="3978">  │ │ │   │ ├── lodash._basevalues@3.0.0 </tspan>
<tspan x="10" y="3994">  │ │ │   │ ├── lodash._isiterateecall@3.0.9 </tspan>
<tspan x="10" y="4010">  │ │ │   │ ├─┬ lodash.escape@3.2.0 </tspan>
<tspan x="10" y="4026">  │ │ │   │ │ └── lodash._root@3.0.1 </tspan>
<tspan x="10" y="4042">  │ │ │   │ ├─┬ lodash.keys@3.1.2 </tspan>
<tspan x="10" y="4058">  │ │ │   │ │ ├── lodash.isarguments@3.1.0 </tspan>
<tspan x="10" y="4074">  │ │ │   │ │ └── lodash.isarray@3.0.4 </tspan>
<tspan x="10" y="4090">  │ │ │   │ ├── lodash.restparam@3.6.1 </tspan>
<tspan x="10" y="4106">  │ │ │   │ └── lodash.templatesettings@3.1.1 </tspan>
<tspan x="10" y="4122">  │ │ │   ├── minimist@1.2.0 </tspan>
<tspan x="10" y="4138">  │ │ │   ├─┬ multipipe@0.1.2 </tspan>
<tspan x="10" y="4154">  │ │ │   │ └─┬ duplexer2@0.0.2 </tspan>
<tspan x="10" y="4170">  │ │ │   │   └─┬ readable-stream@1.1.14 </tspan>
<tspan x="10" y="4186">  │ │ │   │     └── isarray@0.0.1 </tspan>
<tspan x="10" y="4202">  │ │ │   ├── object-assign@3.0.0 </tspan>
<tspan x="10" y="4218">  │ │ │   └── vinyl@0.5.3 </tspan>
<tspan x="10" y="4234">  │ │ ├── gulp-rename@1.2.2 </tspan>
<tspan x="10" y="4250">  │ │ ├── is-url@1.2.2 </tspan>
<tspan x="10" y="4266">  │ │ ├── read-all-stream@3.1.0 </tspan>
<tspan x="10" y="4282">  │ │ ├─┬ readable-stream@2.2.6 </tspan>
<tspan x="10" y="4298">  │ │ │ ├── buffer-shims@1.0.0 </tspan>
<tspan x="10" y="4314">  │ │ │ ├── core-util-is@1.0.2 </tspan>
<tspan x="10" y="4330">  │ │ │ ├── isarray@1.0.0 </tspan>
<tspan x="10" y="4346">  │ │ │ ├── process-nextick-args@1.0.7 </tspan>
<tspan x="10" y="4362">  │ │ │ ├── string_decoder@0.10.31 </tspan>
<tspan x="10" y="4378">  │ │ │ └── util-deprecate@1.0.2 </tspan>
<tspan x="10" y="4394">  │ │ ├── stream-combiner2@1.1.1 </tspan>
<tspan x="10" y="4410">  │ │ ├─┬ vinyl@1.2.0 </tspan>
<tspan x="10" y="4426">  │ │ │ ├── clone@1.0.2 </tspan>
<tspan x="10" y="4442">  │ │ │ ├── clone-stats@0.0.1 </tspan>
<tspan x="10" y="4458">  │ │ │ └── replace-ext@0.0.1 </tspan>
<tspan x="10" y="4474">  │ │ ├─┬ vinyl-fs@2.4.4 </tspan>
<tspan x="10" y="4490">  │ │ │ ├─┬ duplexify@3.5.0 </tspan>
<tspan x="10" y="4506">  │ │ │ │ ├─┬ end-of-stream@1.0.0 </tspan>
<tspan x="10" y="4522">  │ │ │ │ │ └── once@1.3.3 </tspan>
<tspan x="10" y="4538">  │ │ │ │ └── stream-shift@1.0.0 </tspan>
<tspan x="10" y="4554">  │ │ │ ├─┬ glob-stream@5.3.5 </tspan>
<tspan x="10" y="4570">  │ │ │ │ ├─┬ glob-parent@3.1.0 </tspan>
<tspan x="10" y="4586">  │ │ │ │ │ ├─┬ is-glob@3.1.0 </tspan>
<tspan x="10" y="4602">  │ │ │ │ │ │ └── is-extglob@2.1.1 </tspan>
<tspan x="10" y="4618">  │ │ │ │ │ └── path-dirname@1.0.2 </tspan>
<tspan x="10" y="4634">  │ │ │ │ ├─┬ micromatch@2.3.11 </tspan>
<tspan x="10" y="4650">  │ │ │ │ │ ├─┬ arr-diff@2.0.0 </tspan>
<tspan x="10" y="4666">  │ │ │ │ │ │ └── arr-flatten@1.0.1 </tspan>
<tspan x="10" y="4682">  │ │ │ │ │ ├── array-unique@0.2.1 </tspan>
<tspan x="10" y="4698">  │ │ │ │ │ ├─┬ braces@1.8.5 </tspan>
<tspan x="10" y="4714">  │ │ │ │ │ │ ├─┬ expand-range@1.8.2 </tspan>
<tspan x="10" y="4730">  │ │ │ │ │ │ │ └─┬ fill-range@2.2.3 </tspan>
<tspan x="10" y="4746">  │ │ │ │ │ │ │   ├── is-number@2.1.0 </tspan>
<tspan x="10" y="4762">  │ │ │ │ │ │ │   ├── isobject@2.1.0 </tspan>
<tspan x="10" y="4778">  │ │ │ │ │ │ │   ├── randomatic@1.1.6 </tspan>
<tspan x="10" y="4794">  │ │ │ │ │ │ │   └── repeat-string@1.6.1 </tspan>
<tspan x="10" y="4810">  │ │ │ │ │ │ ├── preserve@0.2.0 </tspan>
<tspan x="10" y="4826">  │ │ │ │ │ │ └── repeat-element@1.1.2 </tspan>
<tspan x="10" y="4842">  │ │ │ │ │ ├─┬ expand-brackets@0.1.5 </tspan>
<tspan x="10" y="4858">  │ │ │ │ │ │ └── is-posix-bracket@0.1.1 </tspan>
<tspan x="10" y="4874">  │ │ │ │ │ ├─┬ extglob@0.3.2 </tspan>
<tspan x="10" y="4890">  │ │ │ │ │ │ └── is-extglob@1.0.0 </tspan>
<tspan x="10" y="4906">  │ │ │ │ │ ├── filename-regex@2.0.0 </tspan>
<tspan x="10" y="4922">  │ │ │ │ │ ├── is-extglob@1.0.0 </tspan>
<tspan x="10" y="4938">  │ │ │ │ │ ├── is-glob@2.0.1 </tspan>
<tspan x="10" y="4954">  │ │ │ │ │ ├─┬ kind-of@3.1.0 </tspan>
<tspan x="10" y="4970">  │ │ │ │ │ │ └── is-buffer@1.1.5 </tspan>
<tspan x="10" y="4986">  │ │ │ │ │ ├─┬ normalize-path@2.1.1 </tspan>
<tspan x="10" y="5002">  │ │ │ │ │ │ └── remove-trailing-separator@1.0.1 </tspan>
<tspan x="10" y="5018">  │ │ │ │ │ ├─┬ object.omit@2.0.1 </tspan>
<tspan x="10" y="5034">  │ │ │ │ │ │ ├─┬ for-own@0.1.5 </tspan>
<tspan x="10" y="5050">  │ │ │ │ │ │ │ └── for-in@1.0.2 </tspan>
<tspan x="10" y="5066">  │ │ │ │ │ │ └── is-extendable@0.1.1 </tspan>
<tspan x="10" y="5082">  │ │ │ │ │ ├─┬ parse-glob@3.0.4 </tspan>
<tspan x="10" y="5098">  │ │ │ │ │ │ ├─┬ glob-base@0.3.0 </tspan>
<tspan x="10" y="5114">  │ │ │ │ │ │ │ ├── glob-parent@2.0.0 </tspan>
<tspan x="10" y="5130">  │ │ │ │ │ │ │ └─┬ is-glob@2.0.1 </tspan>
<tspan x="10" y="5146">  │ │ │ │ │ │ │   └── is-extglob@1.0.0 </tspan>
<tspan x="10" y="5162">  │ │ │ │ │ │ ├── is-dotfile@1.0.2 </tspan>
<tspan x="10" y="5178">  │ │ │ │ │ │ ├── is-extglob@1.0.0 </tspan>
<tspan x="10" y="5194">  │ │ │ │ │ │ └── is-glob@2.0.1 </tspan>
<tspan x="10" y="5210">  │ │ │ │ │ └─┬ regex-cache@0.4.3 </tspan>
<tspan x="10" y="5226">  │ │ │ │ │   ├── is-equal-shallow@0.1.3 </tspan>
<tspan x="10" y="5242">  │ │ │ │ │   └── is-primitive@2.0.0 </tspan>
<tspan x="10" y="5258">  │ │ │ │ ├── ordered-read-streams@0.3.0 </tspan>
<tspan x="10" y="5274">  │ │ │ │ ├─┬ through2@0.6.5 </tspan>
<tspan x="10" y="5290">  │ │ │ │ │ └─┬ readable-stream@1.0.34 </tspan>
<tspan x="10" y="5306">  │ │ │ │ │   └── isarray@0.0.1 </tspan>
<tspan x="10" y="5322">  │ │ │ │ ├─┬ to-absolute-glob@0.1.1 </tspan>
<tspan x="10" y="5338">  │ │ │ │ │ └── extend-shallow@2.0.1 </tspan>
<tspan x="10" y="5354">  │ │ │ │ └── unique-stream@2.2.1 </tspan>
<tspan x="10" y="5370">  │ │ │ ├─┬ gulp-sourcemaps@1.6.0 </tspan>
<tspan x="10" y="5386">  │ │ │ │ └── convert-source-map@1.5.0 </tspan>
<tspan x="10" y="5402">  │ │ │ ├── is-valid-glob@0.3.0 </tspan>
<tspan x="10" y="5418">  │ │ │ ├── lazystream@1.0.0 </tspan>
<tspan x="10" y="5434">  │ │ │ ├── lodash.isequal@4.5.0 </tspan>
<tspan x="10" y="5450">  │ │ │ ├── merge-stream@1.0.1 </tspan>
<tspan x="10" y="5466">  │ │ │ ├─┬ strip-bom@2.0.0 </tspan>
<tspan x="10" y="5482">  │ │ │ │ └── is-utf8@0.2.1 </tspan>
<tspan x="10" y="5498">  │ │ │ ├─┬ strip-bom-stream@1.0.0 </tspan>
<tspan x="10" y="5514">  │ │ │ │ └── first-chunk-stream@1.0.0 </tspan>
<tspan x="10" y="5530">  │ │ │ ├── through2-filter@2.0.0 </tspan>
<tspan x="10" y="5546">  │ │ │ └── vali-date@1.0.0 </tspan>
<tspan x="10" y="5562">  │ │ └─┬ ware@1.3.0 </tspan>
<tspan x="10" y="5578">  │ │   └─┬ wrap-fn@0.1.5 </tspan>
<tspan x="10" y="5594">  │ │     └── co@3.1.0 </tspan>
<tspan x="10" y="5610">  │ ├─┬ findup-sync@0.2.1 </tspan>
<tspan x="10" y="5626">  │ │ └─┬ glob@4.3.5 </tspan>
<tspan x="10" y="5642">  │ │   └── minimatch@2.0.10 </tspan>
<tspan x="10" y="5658">  │ ├─┬ github-username@2.1.0 </tspan>
<tspan x="10" y="5674">  │ │ └── gh-got@2.4.0 </tspan>
<tspan x="10" y="5690">  │ ├─┬ glob@5.0.15 </tspan>
<tspan x="10" y="5706">  │ │ ├─┬ inflight@1.0.6 </tspan>
<tspan x="10" y="5722">  │ │ │ └── wrappy@1.0.2 </tspan>
<tspan x="10" y="5738">  │ │ ├── inherits@2.0.3 </tspan>
<tspan x="10" y="5754">  │ │ ├─┬ minimatch@3.0.3 </tspan>
<tspan x="10" y="5770">  │ │ │ └─┬ brace-expansion@1.1.6 </tspan>
<tspan x="10" y="5786">  │ │ │   ├── balanced-match@0.4.2 </tspan>
<tspan x="10" y="5802">  │ │ │   └── concat-map@0.0.1 </tspan>
<tspan x="10" y="5818">  │ │ └── once@1.4.0 </tspan>
<tspan x="10" y="5834">  │ ├─┬ gruntfile-editor@1.2.1 </tspan>
<tspan x="10" y="5850">  │ │ ├─┬ ast-query@2.0.0 </tspan>
<tspan x="10" y="5866">  │ │ │ ├─┬ acorn-jsx@3.0.1 </tspan>
<tspan x="10" y="5882">  │ │ │ │ └── acorn@3.3.0 </tspan>
<tspan x="10" y="5898">  │ │ │ ├─┬ escodegen-wallaby@1.6.10 </tspan>
<tspan x="10" y="5914">  │ │ │ │ ├── esprima@2.7.3 </tspan>
<tspan x="10" y="5930">  │ │ │ │ ├── estraverse@1.9.3 </tspan>
<tspan x="10" y="5946">  │ │ │ │ ├── esutils@2.0.2 </tspan>
<tspan x="10" y="5962">  │ │ │ │ ├─┬ optionator@0.8.2 </tspan>
<tspan x="10" y="5978">  │ │ │ │ │ ├── deep-is@0.1.3 </tspan>
<tspan x="10" y="5994">  │ │ │ │ │ ├── fast-levenshtein@2.0.6 </tspan>
<tspan x="10" y="6010">  │ │ │ │ │ ├── levn@0.3.0 </tspan>
<tspan x="10" y="6026">  │ │ │ │ │ ├── prelude-ls@1.1.2 </tspan>
<tspan x="10" y="6042">  │ │ │ │ │ ├── type-check@0.3.2 </tspan>
<tspan x="10" y="6058">  │ │ │ │ │ └── wordwrap@1.0.0 </tspan>
<tspan x="10" y="6074">  │ │ │ │ └─┬ source-map@0.2.0 </tspan>
<tspan x="10" y="6090">  │ │ │ │   └── amdefine@1.0.1 </tspan>
<tspan x="10" y="6106">  │ │ │ ├── lodash@4.17.4 </tspan>
<tspan x="10" y="6122">  │ │ │ └── traverse@0.6.6 </tspan>
<tspan x="10" y="6138">  │ │ └── lodash@4.17.4 </tspan>
<tspan x="10" y="6154">  │ ├─┬ html-wiring@1.2.0 </tspan>
<tspan x="10" y="6170">  │ │ ├─┬ cheerio@0.19.0 </tspan>
<tspan x="10" y="6186">  │ │ │ ├─┬ css-select@1.0.0 </tspan>
<tspan x="10" y="6202">  │ │ │ │ ├── boolbase@1.0.0 </tspan>
<tspan x="10" y="6218">  │ │ │ │ ├── css-what@1.0.0 </tspan>
<tspan x="10" y="6234">  │ │ │ │ ├── domutils@1.4.3 </tspan>
<tspan x="10" y="6250">  │ │ │ │ └── nth-check@1.0.1 </tspan>
<tspan x="10" y="6266">  │ │ │ ├─┬ dom-serializer@0.1.0 </tspan>
<tspan x="10" y="6282">  │ │ │ │ └── domelementtype@1.1.3 </tspan>
<tspan x="10" y="6298">  │ │ │ ├── entities@1.1.1 </tspan>
<tspan x="10" y="6314">  │ │ │ └─┬ htmlparser2@3.8.3 </tspan>
<tspan x="10" y="6330">  │ │ │   ├── domelementtype@1.3.0 </tspan>
<tspan x="10" y="6346">  │ │ │   ├── domhandler@2.3.0 </tspan>
<tspan x="10" y="6362">  │ │ │   ├── domutils@1.5.1 </tspan>
<tspan x="10" y="6378">  │ │ │   ├── entities@1.0.0 </tspan>
<tspan x="10" y="6394">  │ │ │   └─┬ readable-stream@1.1.14 </tspan>
<tspan x="10" y="6410">  │ │ │     └── isarray@0.0.1 </tspan>
<tspan x="10" y="6426">  │ │ └─┬ detect-newline@1.0.3 </tspan>
<tspan x="10" y="6442">  │ │   └── minimist@1.2.0 </tspan>
<tspan x="10" y="6458">  │ ├─┬ inquirer@0.8.5 </tspan>
<tspan x="10" y="6474">  │ │ ├── ansi-regex@1.1.1 </tspan>
<tspan x="10" y="6490">  │ │ ├─┬ readline2@0.1.1 </tspan>
<tspan x="10" y="6506">  │ │ │ ├── mute-stream@0.0.4 </tspan>
<tspan x="10" y="6522">  │ │ │ └── strip-ansi@2.0.1 </tspan>
<tspan x="10" y="6538">  │ │ └── rx@2.5.3 </tspan>
<tspan x="10" y="6554">  │ ├─┬ istextorbinary@1.0.2 </tspan>
<tspan x="10" y="6570">  │ │ ├── binaryextensions@1.0.1 </tspan>
<tspan x="10" y="6586">  │ │ └── textextensions@1.0.2 </tspan>
<tspan x="10" y="6602">  │ ├─┬ mem-fs-editor@2.3.0 </tspan>
<tspan x="10" y="6618">  │ │ ├── commondir@1.0.1 </tspan>
<tspan x="10" y="6634">  │ │ ├── deep-extend@0.4.1 </tspan>
<tspan x="10" y="6650">  │ │ ├── ejs@2.5.6 </tspan>
<tspan x="10" y="6666">  │ │ ├─┬ glob@7.1.1 </tspan>
<tspan x="10" y="6682">  │ │ │ └── fs.realpath@1.0.0 </tspan>
<tspan x="10" y="6698">  │ │ ├─┬ globby@4.1.0 </tspan>
<tspan x="10" y="6714">  │ │ │ ├── array-union@1.0.2 </tspan>
<tspan x="10" y="6730">  │ │ │ ├── arrify@1.0.1 </tspan>
<tspan x="10" y="6746">  │ │ │ ├── glob@6.0.4 </tspan>
<tspan x="10" y="6762">  │ │ │ └── pify@2.3.0 </tspan>
<tspan x="10" y="6778">  │ │ └─┬ multimatch@2.1.0 </tspan>
<tspan x="10" y="6794">  │ │   └── array-differ@1.0.0 </tspan>
<tspan x="10" y="6810">  │ ├── mime@1.3.4 </tspan>
<tspan x="10" y="6826">  │ ├─┬ mkdirp@0.5.1 </tspan>
<tspan x="10" y="6842">  │ │ └── minimist@0.0.8 </tspan>
<tspan x="10" y="6858">  │ ├─┬ nopt@3.0.6 </tspan>
<tspan x="10" y="6874">  │ │ └── abbrev@1.1.0 </tspan>
<tspan x="10" y="6890">  │ ├── path-exists@1.0.0 </tspan>
<tspan x="10" y="6906">  │ ├── path-is-absolute@1.0.1 </tspan>
<tspan x="10" y="6922">  │ ├── pretty-bytes@2.0.1 </tspan>
<tspan x="10" y="6938">  │ ├── read-chunk@1.0.1 </tspan>
<tspan x="10" y="6954">  │ ├─┬ rimraf@2.6.1 </tspan>
<tspan x="10" y="6970">  │ │ └── glob@7.1.1 </tspan>
<tspan x="10" y="6986">  │ ├── run-async@0.1.0 </tspan>
<tspan x="10" y="7002">  │ ├── shelljs@0.5.3 </tspan>
<tspan x="10" y="7018">  │ ├─┬ sinon@1.17.7 </tspan>
<tspan x="10" y="7034">  │ │ ├── formatio@1.1.1 </tspan>
<tspan x="10" y="7050">  │ │ ├── lolex@1.3.2 </tspan>
<tspan x="10" y="7066">  │ │ ├── samsam@1.1.2 </tspan>
<tspan x="10" y="7082">  │ │ └─┬ util@0.10.3 </tspan>
<tspan x="10" y="7098">  │ │   └── inherits@2.0.1 </tspan>
<tspan x="10" y="7114">  │ ├── text-table@0.2.0 </tspan>
<tspan x="10" y="7130">  │ ├─┬ through2@2.0.3 </tspan>
<tspan x="10" y="7146">  │ │ └── xtend@4.0.1 </tspan>
<tspan x="10" y="7162">  │ ├─┬ user-home@2.0.0 </tspan>
<tspan x="10" y="7178">  │ │ └── os-homedir@1.0.2 </tspan>
<tspan x="10" y="7194">  │ ├── xdg-basedir@2.0.0 </tspan>
<tspan x="10" y="7210">  │ ├── yeoman-assert@2.2.3 </tspan>
<tspan x="10" y="7226">  │ ├─┬ yeoman-environment@1.6.6 </tspan>
<tspan x="10" y="7242">  │ │ ├─┬ grouped-queue@0.3.3 </tspan>
<tspan x="10" y="7258">  │ │ │ └── lodash@4.17.4 </tspan>
<tspan x="10" y="7274">  │ │ ├─┬ inquirer@1.2.3 </tspan>
<tspan x="10" y="7290">  │ │ │ ├── cli-width@2.1.0 </tspan>
<tspan x="10" y="7306">  │ │ │ ├─┬ external-editor@1.1.1 </tspan>
<tspan x="10" y="7322">  │ │ │ │ └── tmp@0.0.29 </tspan>
<tspan x="10" y="7338">  │ │ │ ├── mute-stream@0.0.6 </tspan>
<tspan x="10" y="7354">  │ │ │ ├─┬ run-async@2.3.0 </tspan>
<tspan x="10" y="7370">  │ │ │ │ └── is-promise@2.1.0 </tspan>
<tspan x="10" y="7386">  │ │ │ └── rx@4.1.0 </tspan>
<tspan x="10" y="7402">  │ │ ├── lodash@4.17.4 </tspan>
<tspan x="10" y="7418">  │ │ ├── log-symbols@1.0.2 </tspan>
<tspan x="10" y="7434">  │ │ ├─┬ mem-fs@1.1.3 </tspan>
<tspan x="10" y="7450">  │ │ │ └─┬ vinyl-file@2.0.0 </tspan>
<tspan x="10" y="7466">  │ │ │   └─┬ strip-bom-stream@2.0.0 </tspan>
<tspan x="10" y="7482">  │ │ │     └── first-chunk-stream@2.0.0 </tspan>
<tspan x="10" y="7498">  │ │ └── untildify@2.1.0 </tspan>
<tspan x="10" y="7514">  │ └── yeoman-welcome@1.0.1 </tspan>
<tspan x="10" y="7530">  └─┬ yosay@1.0.5 </tspan>
<tspan x="10" y="7546">    ├── ansi-regex@1.1.1 </tspan>
<tspan x="10" y="7562">    ├── minimist@1.2.0 </tspan>
<tspan x="10" y="7578">    ├── pad-component@0.0.1 </tspan>
<tspan x="10" y="7594">    ├─┬ repeating@1.1.3 </tspan>
<tspan x="10" y="7610">    │ └── is-finite@1.0.2 </tspan>
<tspan x="10" y="7626">    ├─┬ string-width@1.0.2 </tspan>
<tspan x="10" y="7642">    │ ├── code-point-at@1.1.0 </tspan>
<tspan x="10" y="7658">    │ └── is-fullwidth-code-point@1.0.0 </tspan>
<tspan x="10" y="7674">    ├── strip-ansi@2.0.1 </tspan>
<tspan x="10" y="7690">    ├─┬ taketalk@1.0.0 </tspan>
<tspan x="10" y="7706">    │ └── minimist@1.2.0 </tspan>
<tspan x="10" y="7722">    └── word-wrap@1.2.1</tspan>
</text>
</svg>
